<svg width="49" height="53" fill="none" xmlns="http://www.w3.org/2000/svg"><path d="M42.384 48.796A3.22 3.22 0 0139.182 52m-.002-.001H4.203m.001.001A3.217 3.217 0 011 48.796m0-.001V13.83L14.868 1h24.313m.001 0a3.215 3.215 0 013.202 3.203m.001 0V25.41M15.504 1v11.829m.002 0c0 .938-.773 1.714-1.713 1.714m-.001.001H1m22.678-8.106h12.3m0 0c.417 0 .763.377.763.831m.001 0v7.026m-.002-.001c0 .46-.345.832-.762.832m0 .001h-12.3m0-.001c-.422 0-.764-.373-.764-.832m0 .001V7.269m0 .001c0-.455.342-.832.764-.832M6.06 23.232h30.75M6.06 33.893h21.147M6.06 44.556h22.658M47.34 36.89a7.455 7.455 0 11-7.452-7.454c1.366 0 2.645.368 3.748 1.01m-7.023 5.704l3.788 3.47m6.935-7.576l-6.938 7.577" stroke="#F7F5F5" stroke-width="2" stroke-miterlimit="2.613" stroke-linecap="round" stroke-linejoin="round"/></svg>