<svg width="62" height="50" fill="none" xmlns="http://www.w3.org/2000/svg"><path d="M1.033 10.334a1.034 1.034 0 010-2.067c29.727 0 47.67 0 52.874-7.806a1.03 1.03 0 011.16-.415c.433.13.733.53.733.987V6.2a1.034 1.034 0 01-2.067 0c0-.939-1.146-1.48-1.944-.986-8.279 5.12-25.293 5.12-50.756 5.12z" fill="#F7F5F5"/><path d="M26.823 14.59c-3.678 0-7.617-.03-11.807-.057-4.45-.03-9.124-.064-13.983-.064a1.034 1.034 0 010-2.066c4.865 0 9.544.033 13.996.062 21.89.142 39.178.268 43.12-3.875a1.035 1.035 0 011.784.713v4.133a1.034 1.034 0 01-2.066 0c0-.935-1.019-1.553-1.897-1.235-5.556 2.017-15.555 2.388-29.147 2.388zm-25.79 1.944a1.034 1.034 0 000 2.067h55.9a3 3 0 013 3v22.933a3 3 0 01-3 3h-55.9a1.034 1.034 0 000 2.067h59.934c.57 0 1.033-.463 1.033-1.033v-31c0-.57-.463-1.034-1.033-1.034H1.033z" fill="#F7F5F5"/><path d="M0 21.7v26.87a1.034 1.034 0 002.067 0V21.7A1.034 1.034 0 000 21.7zm25.828 13.44a1.034 1.034 0 010-2.067h6.2c1.71 0 3.1-1.391 3.1-3.1 0-1.71-1.39-3.1-3.1-3.1h-4.133a1.033 1.033 0 110-2.067h4.133a5.174 5.174 0 015.167 5.167 5.173 5.173 0 01-5.167 5.166h-6.2z" fill="#F7F5F5"/><path d="M27.899 43.403c-.57 0-1.034-.463-1.034-1.033v-15.5a1.034 1.034 0 012.067 0v15.5c0 .57-.463 1.033-1.033 1.033z" fill="#F7F5F5"/><path d="M34.097 39.27H25.83a1.034 1.034 0 010-2.067h8.267a1.034 1.034 0 010 2.066z" fill="#F7F5F5"/></svg>