<svg width="77" height="62" fill="none" xmlns="http://www.w3.org/2000/svg"><path d="M2 53.405h63.504v4.886m0 0a2.103 2.103 0 01-2.096 2.099m.002 0H3.678m-.001 0A1.683 1.683 0 012 58.71m0 .001v-5.306m19.73-33.279H7.617m.001 0a1.882 1.882 0 00-1.878 1.875" stroke="#000" stroke-width="2.5" stroke-miterlimit="2.613" stroke-linecap="round" stroke-linejoin="round"/><path d="M5.74 22v31.405h56.023V41.849M43.708 20.126H30.984m29.264 0H48.94M61.764 35.93V25.576M5.082 56.898h20.58m29.573.442c.245 0 .443-.2.443-.443a.444.444 0 00-.889 0c0 .242.2.443.446.443zm3.325 0a.443.443 0 10-.441-.443c0 .242.198.443.441.443zm3.05 0c.246 0 .447-.2.447-.443a.444.444 0 10-.446.443z" stroke="#000" stroke-width="2.5" stroke-miterlimit="2.613" stroke-linecap="round" stroke-linejoin="round"/><path d="M51.233 36.356a7.4 7.4 0 01-7.398 7.4 7.399 7.399 0 010-14.797 7.4 7.4 0 017.398 7.397zM48.98 7.142a5.141 5.141 0 01-5.144 5.14 5.137 5.137 0 01-5.14-5.14 5.143 5.143 0 0110.284 0zM75 36.356a5.143 5.143 0 11-10.286.001 5.143 5.143 0 0110.286 0zm-4.791-22.344a3.454 3.454 0 01-6.906 0 3.454 3.454 0 016.906 0zm-52.677-.793a3.453 3.453 0 01-3.453 3.452 3.448 3.448 0 01-3.45-3.452 3.45 3.45 0 116.903 0zM49.88 31.852l14.602-15.181M43.836 28.736V12.41m7.396 23.946h13.482m-48.03-20.794l20.954 16.41" stroke="#000" stroke-width="2.5" stroke-miterlimit="2.613" stroke-linecap="round" stroke-linejoin="round"/></svg>