<svg width="150" height="49" fill="none" xmlns="http://www.w3.org/2000/svg"><path d="M58.842 21.71c-.067-2.01-.712-3.618-1.936-4.824s-2.911-1.81-5.061-1.81c-2.151 0-3.888.604-5.21 1.81-1.324 1.206-2.118 2.814-2.383 4.824h14.59zm3.324 9.599c-1.389 1.809-2.91 3.074-4.565 3.794-1.654.72-3.573 1.08-5.756 1.08-1.82 0-3.458-.326-4.913-.98-1.456-.653-2.688-1.532-3.697-2.638-1.01-1.105-1.786-2.412-2.332-3.92-.546-1.507-.819-3.116-.819-4.824 0-1.81.298-3.476.893-5 .596-1.525 1.422-2.831 2.482-3.92a11.142 11.142 0 013.77-2.538c1.456-.603 3.044-.905 4.765-.905 1.62 0 3.109.277 4.466.83a9.682 9.682 0 013.498 2.412c.976 1.055 1.729 2.345 2.258 3.87.529 1.524.794 3.258.794 5.2v1.257H44.252a8.317 8.317 0 00.72 2.89c.413.921.95 1.725 1.613 2.412a7.448 7.448 0 002.332 1.633c.893.402 1.869.603 2.928.603 1.687 0 3.11-.301 4.268-.904 1.157-.604 2.2-1.49 3.126-2.664l2.927 2.312zm10.522-7.489c0 1.24.19 2.388.57 3.443a8.027 8.027 0 001.662 2.764 7.895 7.895 0 002.606 1.86c1.008.452 2.141.678 3.398.678 1.258 0 2.39-.226 3.4-.678a7.914 7.914 0 002.605-1.86 8.058 8.058 0 001.663-2.764c.38-1.055.57-2.203.57-3.442 0-1.24-.19-2.388-.57-3.443a8.063 8.063 0 00-1.663-2.764 7.93 7.93 0 00-2.605-1.86c-1.01-.451-2.142-.677-3.4-.677-1.257 0-2.39.226-3.398.678a7.91 7.91 0 00-2.606 1.86 8.032 8.032 0 00-1.662 2.763c-.38 1.055-.57 2.204-.57 3.443zm-3.872-11.759h3.871v3.417h.1c1.058-1.272 2.29-2.261 3.696-2.965 1.406-.703 2.953-1.055 4.64-1.055 1.82 0 3.481.31 4.987.93 1.505.62 2.787 1.482 3.846 2.588 1.058 1.106 1.886 2.412 2.481 3.92s.894 3.15.894 4.925c0 1.776-.299 3.417-.894 4.925-.595 1.507-1.414 2.814-2.456 3.92a11.137 11.137 0 01-3.697 2.588c-1.423.62-2.945.93-4.565.93-2.084 0-3.913-.462-5.484-1.383-1.571-.92-2.721-2.052-3.448-3.392h-.1v15.63h-3.87V12.06zm41.436 12.212c-2.481 0-4.45.352-5.906 1.056-1.456.703-2.184 1.859-2.184 3.467 0 1.475.489 2.521 1.465 3.14.975.621 2.191.93 3.646.93 1.125 0 2.11-.192 2.954-.577.843-.385 1.546-.896 2.108-1.533a6.627 6.627 0 001.291-2.236 9.279 9.279 0 00.497-2.74v-1.507h-3.871zm-11.216-9.196a10.906 10.906 0 014.243-2.74 14.73 14.73 0 014.988-.879c3.44 0 5.921.822 7.443 2.463 1.521 1.642 2.283 4.138 2.283 7.488v10.1c0 .672.032 1.366.099 2.086.066.721.149 1.383.248 1.985h-3.721a8.313 8.313 0 01-.224-1.784 63.073 63.073 0 01-.025-1.733h-.099c-.761 1.206-1.779 2.194-3.052 2.965-1.274.77-2.804 1.155-4.59 1.155-1.191 0-2.308-.15-3.35-.452-1.042-.301-1.952-.745-2.729-1.331a6.548 6.548 0 01-1.861-2.187c-.464-.87-.695-1.876-.695-3.015 0-1.943.497-3.467 1.49-4.573.991-1.106 2.224-1.926 3.695-2.463 1.473-.535 3.061-.87 4.764-1.005a60.5 60.5 0 014.691-.2h1.489v-.704c0-1.709-.505-2.998-1.515-3.87-1.009-.87-2.423-1.306-4.243-1.306-1.256 0-2.488.21-3.696.628a8.856 8.856 0 00-3.201 1.935l-2.432-2.563zm26.4-3.016h3.87v23.52h-3.87V12.06zm-.893-9.196c0-.77.272-1.44.818-2.01a2.677 2.677 0 012.01-.855c.794 0 1.465.285 2.01.854.546.57.819 1.24.819 2.01 0 .839-.265 1.526-.794 2.061-.53.536-1.208.804-2.035.804-.827 0-1.506-.268-2.034-.804-.53-.535-.794-1.222-.794-2.06zM24.92 21.034c0-.416.114-1.907.226-2.408.735-3.28 3.85-7.418 9.91-7.185.486.019.827.05 1.216.148v3.639c-.518-.054-1.64-.066-2.235-.028-1.741.111-4.286 1.35-5.113 4.64-.264 1.046-.183 3.335-.183 4.075l-.002 11.644h-3.82V21.034zm112.082.025c0-.417.114-1.908.227-2.41.734-3.28 3.85-7.417 9.909-7.184.486.019.827.05 1.216.148v3.64c-.518-.055-1.639-.067-2.234-.03-1.742.113-4.286 1.352-5.114 4.64-.263 1.047-.183 3.337-.183 4.076l-.002 11.644h-3.819V21.059z" fill="#F7F5F5"/><path d="M8.772 22.765l11.215-10.704h-5.508L3.909 22.414 3.906 0 .036 3.786.037 35.58h3.87V23.218L15.423 35.58h5.706L8.772 22.765z" fill="#F03957"/><path d="M5.099 43.123H4.16a1.271 1.271 0 00-.509-.71c-.257-.18-.583-.27-.98-.27-.514 0-.927.19-1.242.572-.314.382-.471.888-.471 1.517 0 .643.158 1.153.474 1.527.316.375.733.563 1.249.563.387 0 .708-.084.965-.25.256-.166.431-.405.525-.716h.937a2.015 2.015 0 01-.807 1.294c-.44.33-.982.494-1.625.494-.81 0-1.458-.263-1.946-.788-.486-.525-.73-1.233-.73-2.124 0-.877.244-1.581.731-2.114.488-.532 1.133-.798 1.935-.798.664 0 1.213.173 1.647.52.433.346.695.774.786 1.283zm4.325-.991c-.459 0-.84.148-1.14.445-.303.297-.47.688-.502 1.172h3.213c-.01-.484-.16-.875-.447-1.172-.287-.297-.662-.445-1.124-.445zm1.55 3.325h.931c-.08.492-.346.895-.802 1.212-.455.316-.995.475-1.62.475-.82 0-1.47-.26-1.953-.78-.482-.52-.723-1.223-.723-2.11 0-.888.24-1.6.72-2.133.48-.534 1.118-.8 1.913-.8.78 0 1.398.251 1.853.755.455.504.683 1.187.683 2.05v.36H7.782v.053c0 .545.157.98.471 1.305.315.326.732.488 1.252.488.365 0 .68-.078.945-.236.266-.157.44-.37.523-.639zm5.7.865c.517 0 .931-.19 1.244-.57.312-.38.469-.887.469-1.52 0-.63-.157-1.135-.47-1.517-.312-.382-.726-.573-1.243-.573-.502 0-.91.193-1.224.578-.314.386-.472.89-.472 1.512s.157 1.126.47 1.512a1.5 1.5 0 001.226.578zm.174-5.002c.748 0 1.352.268 1.812.804.46.536.691 1.238.691 2.108 0 .87-.23 1.572-.688 2.108-.459.536-1.057.804-1.794.804-.411 0-.779-.085-1.102-.255a1.875 1.875 0 01-.761-.727h-.022V49h-.943v-7.627h.894v.928h.022c.17-.297.426-.534.77-.713a2.395 2.395 0 011.12-.268zm6.882 3.193h-1.382v1.814h1.56c.354 0 .625-.077.813-.23.188-.155.282-.377.282-.666 0-.311-.105-.542-.314-.693-.21-.15-.53-.225-.96-.225zm.07-2.376h-1.452v1.612h1.3c.733 0 1.1-.272 1.1-.817 0-.257-.081-.455-.244-.59-.162-.137-.397-.205-.704-.205zm-2.384 4.954v-5.718h2.503c.542 0 .97.131 1.282.393.312.261.468.619.468 1.071 0 .29-.092.553-.276.79a1.14 1.14 0 01-.677.44v.043c.365.05.658.196.88.44.222.244.334.543.334.896 0 .506-.18.907-.537 1.202-.358.295-.845.443-1.463.443h-2.514zm7.537-.001h-.931v-5.717h.931v4.291h.044l3.007-4.29h.932v5.717h-.932V42.8h-.043l-3.008 4.29zM40.1 43.123h-.937a1.271 1.271 0 00-.51-.71c-.256-.18-.582-.27-.98-.27-.513 0-.926.19-1.24.572-.315.382-.472.888-.472 1.517 0 .643.158 1.153.474 1.527.316.375.732.563 1.249.563.387 0 .708-.084.964-.25.257-.166.432-.405.526-.716h.937a2.015 2.015 0 01-.807 1.294c-.44.33-.983.494-1.625.494-.81 0-1.458-.263-1.946-.788-.487-.525-.731-1.233-.731-2.124 0-.877.244-1.581.731-2.114.488-.532 1.133-.798 1.935-.798.664 0 1.213.173 1.647.52.433.346.695.774.786 1.283zm5.897 3.967v-2.588h-2.97v2.589h-.931v-5.718h.932v2.366h2.969v-2.366h.932v5.718h-.932zm8.247 0v-5.717h.932v5.718h-.932zm-2.93-3.118h-1.1v2.355h1.1c.382 0 .688-.107.917-.321.23-.214.345-.5.345-.856 0-.358-.115-.643-.345-.857-.229-.214-.535-.321-.918-.321zm-2.033 3.119v-5.718h.932v1.835h1.1c.668 0 1.201.175 1.598.525.398.35.597.823.597 1.417 0 .594-.2 1.065-.597 1.416-.397.35-.93.525-1.598.525h-2.032zm8.979-8.221h.694c0 .315.097.576.29.785.193.209.447.313.761.313.315 0 .569-.104.762-.313.193-.209.29-.47.29-.785h.693c0 .488-.162.884-.485 1.188-.323.304-.743.456-1.26.456-.516 0-.936-.152-1.26-.456-.323-.304-.484-.7-.484-1.188zm.201 8.22h-.932v-5.717h.932v4.291h.044l3.007-4.29h.932v5.717h-.932V42.8h-.044l-3.007 4.29zm26.199 1.512h-.878v-1.511h-4.778v-5.718h.932v4.954h2.86v-4.954h.933v4.954h.932v2.275zm4.18-6.47c-.459 0-.839.148-1.14.445-.302.297-.47.688-.502 1.172h3.213c-.01-.484-.16-.875-.447-1.172-.287-.297-.662-.445-1.124-.445zm1.55 3.325h.931c-.08.492-.346.895-.801 1.212-.455.316-.996.475-1.62.475-.82 0-1.472-.26-1.954-.78s-.723-1.223-.723-2.11c0-.888.24-1.6.72-2.133.48-.534 1.118-.8 1.913-.8.78 0 1.398.251 1.853.755.456.504.683 1.187.683 2.05v.36h-4.194v.053c0 .545.157.98.472 1.305.314.326.731.488 1.251.488.365 0 .68-.078.946-.236.265-.157.44-.37.522-.639zm6.967 1.633v-2.588h-2.97v2.589h-.932v-5.718h.933v2.366h2.969v-2.366h.931v5.718h-.931zm7.534-5.717v.764h-1.896v4.954h-.933v-4.954h-1.896v-.764h4.725zm4.508 4.949c.516 0 .931-.19 1.244-.57.312-.38.468-.887.468-1.52 0-.63-.156-1.135-.468-1.517-.313-.382-.728-.573-1.244-.573-.503 0-.91.193-1.225.578-.314.386-.471.89-.471 1.512s.157 1.126.469 1.512c.312.385.721.578 1.227.578zm.173-5.002c.748 0 1.352.268 1.813.804.46.535.691 1.238.691 2.108 0 .87-.23 1.572-.688 2.108-.459.536-1.057.804-1.794.804-.412 0-.779-.085-1.103-.255a1.88 1.88 0 01-.761-.727h-.021V49h-.943v-7.627h.893v.928h.022c.17-.297.427-.534.77-.713a2.393 2.393 0 011.121-.268z" fill="#D9D9D9"/></svg>