<svg width="24" height="24" fill="none" xmlns="http://www.w3.org/2000/svg"><path d="M14.364 1.664a7.39 7.39 0 00-2.23-.344A7.366 7.366 0 006.48 3.957L9.968 6.89l4.396-5.227z" fill="#1A73E8"/><path d="M6.479 3.957a7.353 7.353 0 00-1.73 4.745c0 1.39.277 2.514.731 3.522l4.487-5.333-3.488-2.934z" fill="#EA4335"/><path d="M12.133 5.88a2.824 2.824 0 012.157 4.647L18.685 5.3a7.398 7.398 0 00-4.32-3.637L9.967 6.891a2.816 2.816 0 012.166-1.01z" fill="#4285F4"/><path d="M12.133 11.526A2.824 2.824 0 019.967 6.89L5.48 12.224c.767 1.7 2.042 3.066 3.356 4.786l5.453-6.484c-.517.612-1.292 1-2.156 1z" fill="#FBBC04"/><path d="M14.18 18.78c2.463-3.852 5.335-5.6 5.335-10.078 0-1.227-.3-2.384-.83-3.401L8.837 17.01c.418.547.838 1.13 1.25 1.77 1.497 2.314 1.081 3.702 2.047 3.702.964 0 .55-1.39 2.047-3.703z" fill="#34A853"/></svg>