<svg width="138" height="23" fill="none" xmlns="http://www.w3.org/2000/svg"><path d="M125.888 1l3.022 7.476 8.09.545-6.223 5.166L132.755 22l-6.867-4.284L119.021 22 121 14.187l-6.223-5.166 8.09-.545L125.888 1z" stroke="#FEC12A" stroke-width="2" stroke-linecap="round" stroke-linejoin="round"/><path d="M40.556 1l3.022 7.476 8.09.545-6.223 5.166L47.423 22l-6.867-4.284L33.69 22l1.978-7.813-6.222-5.166 8.09-.545L40.556 1zm28.446 0l3.021 7.476 8.09.545-6.222 5.166L75.869 22l-6.867-4.284L62.135 22l1.978-7.813L57.89 9.02l8.09-.545L69 1zm28.441 0l3.022 7.476 8.089.545-6.222 5.166L104.31 22l-6.867-4.284L90.576 22l1.978-7.813-6.222-5.166 8.09-.545L97.443 1zM12.111 1l3.022 7.476 8.09.545L17 14.187 18.978 22l-6.867-4.284L5.244 22l1.978-7.813L1 9.02l8.09-.545L12.11 1z" fill="#FEC12A" stroke="#FEC12A" stroke-width="2" stroke-linecap="round" stroke-linejoin="round"/></svg>