<svg width="32" height="32" fill="none" xmlns="http://www.w3.org/2000/svg"><g clip-path="url(#clip0_2_4472)"><path d="M16.864 4.43a6.106 6.106 0 00-6.156 6.06l-.192 13.921a4.757 4.757 0 004.713 4.79 4.756 4.756 0 004.788-4.714l.192-13.921a3.393 3.393 0 10-6.786-.054L13.34 21.04a.679.679 0 101.357.011l.084-10.529a2.039 2.039 0 012.051-2.02c1.123.01 2.03.93 2.02 2.053l-.192 13.92a3.392 3.392 0 11-6.786-.053l.19-13.785a4.75 4.75 0 014.788-4.713 4.75 4.75 0 014.714 4.788l-.081 10.392a.676.676 0 00.673.684.677.677 0 00.684-.674l.082-10.527a6.106 6.106 0 00-6.06-6.156z" fill="#525252"/></g><defs><clipPath id="clip0_2_4472"><path fill="#fff" transform="rotate(-44.549 19.964 7.531)" d="M0 0h21.72v21.72H0z"/></clipPath></defs></svg>