<svg width="24" height="24" viewBox="0 0 24 24" fill="none" xmlns="http://www.w3.org/2000/svg">
<path d="M14.3637 1.66407C13.6597 1.44167 12.9109 1.32007 12.1333 1.32007C9.86447 1.32007 7.83407 2.34567 6.48047 3.95687L9.96847 6.89127L14.3637 1.66407Z" fill="#1A73E8"/>
<path d="M6.47862 3.95679C5.40022 5.23999 4.74902 6.89599 4.74902 8.70239C4.74902 10.0912 5.02582 11.216 5.48022 12.224L9.96662 6.89119L6.47862 3.95679Z" fill="#EA4335"/>
<path d="M12.1332 5.88006C13.6932 5.88006 14.9572 7.14406 14.9572 8.70406C14.9572 9.39846 14.706 10.0353 14.29 10.5265C14.29 10.5265 16.5204 7.87366 18.6852 5.30086C17.7908 3.58086 16.2404 2.25766 14.3652 1.66406L9.9668 6.89126C10.4852 6.27206 11.2628 5.88006 12.1332 5.88006Z" fill="#4285F4"/>
<path d="M12.1333 11.5264C10.5733 11.5264 9.30927 10.2624 9.30927 8.70245C9.30927 8.01285 9.55727 7.38085 9.96687 6.88965L5.48047 12.224C6.24687 13.9248 7.52207 15.2896 8.83567 17.0096L14.2885 10.5264C13.7717 11.1376 12.9973 11.5264 12.1333 11.5264Z" fill="#FBBC04"/>
<path d="M14.1809 18.7792C16.6433 14.928 19.5153 13.1792 19.5153 8.70238C19.5153 7.47518 19.2145 6.31838 18.6849 5.30078L8.83691 17.0096C9.25451 17.5568 9.67531 18.1392 10.0865 18.7808C11.5841 21.0944 11.1681 22.4816 12.1345 22.4816C13.0977 22.4816 12.6833 21.0928 14.1809 18.7792Z" fill="#34A853"/>
</svg>
