<svg width="138" height="23" viewBox="0 0 138 23" fill="none" xmlns="http://www.w3.org/2000/svg">
<path d="M125.888 1L128.91 8.47626L137 9.02129L130.777 14.1869L132.755 22L125.888 17.7163L119.021 22L121 14.1869L114.777 9.02129L122.867 8.47626L125.888 1Z" stroke="#FEC12A" stroke-width="2" stroke-linecap="round" stroke-linejoin="round"/>
<path d="M40.5564 1L43.5779 8.47626L51.6675 9.02129L45.4453 14.1869L47.4235 22L40.5564 17.7163L33.6894 22L35.6675 14.1869L29.4453 9.02129L37.5349 8.47626L40.5564 1Z" fill="#FEC12A" stroke="#FEC12A" stroke-width="2" stroke-linecap="round" stroke-linejoin="round"/>
<path d="M69.0017 1L72.0232 8.47626L80.1128 9.02129L73.8906 14.1869L75.8688 22L69.0017 17.7163L62.1347 22L64.1128 14.1869L57.8906 9.02129L65.9802 8.47626L69.0017 1Z" fill="#FEC12A" stroke="#FEC12A" stroke-width="2" stroke-linecap="round" stroke-linejoin="round"/>
<path d="M97.4431 1L100.465 8.47626L108.554 9.02129L102.332 14.1869L104.31 22L97.4431 17.7163L90.5761 22L92.5543 14.1869L86.332 9.02129L94.4216 8.47626L97.4431 1Z" fill="#FEC12A" stroke="#FEC12A" stroke-width="2" stroke-linecap="round" stroke-linejoin="round"/>
<path d="M12.1111 1L15.1326 8.47626L23.2222 9.02129L17 14.1869L18.9782 22L12.1111 17.7163L5.24407 22L7.22222 14.1869L1 9.02129L9.08961 8.47626L12.1111 1Z" fill="#FEC12A" stroke="#FEC12A" stroke-width="2" stroke-linecap="round" stroke-linejoin="round"/>
</svg>
