<svg width="32" height="32" viewBox="0 0 32 32" fill="none" xmlns="http://www.w3.org/2000/svg">
<g clip-path="url(#clip0_2_4472)">
<path d="M16.8645 4.43072C13.4906 4.40318 10.7339 7.11676 10.7083 10.4907L10.5156 24.4114C10.4949 27.0308 12.61 29.1795 15.2295 29.2001C17.8489 29.2208 19.9971 27.1062 20.0172 24.4872L20.2095 10.566C20.2242 8.6914 18.7172 7.16045 16.8426 7.14569C14.9685 7.1314 13.437 8.63889 13.4228 10.5121L13.3398 21.0398C13.3373 21.4156 13.6378 21.7208 14.0136 21.7243C14.3889 21.7272 14.6946 21.4263 14.6975 21.051L14.7805 10.5223C14.7898 9.39973 15.7098 8.49409 16.8324 8.50245C17.9554 8.5113 18.8615 9.4318 18.8527 10.5548L18.66 24.4755C18.6452 26.3501 17.1148 27.8567 15.2402 27.8419C13.366 27.8276 11.8585 26.2962 11.8738 24.4221L12.064 10.6372C12.0846 8.01293 14.2294 5.90168 16.8517 5.92426C19.4774 5.94447 21.5868 8.08731 21.5661 10.7116L21.4847 21.1035C21.4813 21.4803 21.7817 21.7855 22.158 21.7875C22.5338 21.7909 22.8395 21.49 22.842 21.1142L22.9244 10.5869C22.952 7.21302 20.2384 4.45634 16.8645 4.43072Z" fill="#525252"/>
</g>
<defs>
<clipPath id="clip0_2_4472">
<rect width="21.7199" height="21.7199" fill="white" transform="translate(0.453125 16.1689) rotate(-44.5486)"/>
</clipPath>
</defs>
</svg>
